<?xml version="1.0" standalone="no"?>
<!DOCTYPE svg PUBLIC "-//W3C//DTD SVG 20010904//EN"
 "http://www.w3.org/TR/2001/REC-SVG-20010904/DTD/svg10.dtd">
<svg version="1.0" xmlns="http://www.w3.org/2000/svg"
 width="533.000000pt" height="343.000000pt" viewBox="0 0 533.000000 343.000000"
 preserveAspectRatio="xMidYMid meet">

<g transform="translate(0.000000,343.000000) scale(0.100000,-0.100000)"
fill="#000000" stroke="none">
<path d="M287 3159 c-16 -9 -17 -41 -17 -398 0 -342 2 -390 16 -402 11 -9 20
-10 32 -2 15 9 18 45 22 314 l5 304 147 -290 c80 -160 153 -297 162 -304 9 -7
23 -11 31 -7 9 3 83 142 165 308 l148 303 1 -302 c1 -260 3 -304 17 -317 18
-19 20 -19 45 -6 18 10 19 25 19 393 0 210 -4 388 -9 395 -4 8 -19 12 -32 10
-21 -3 -47 -50 -189 -335 -91 -183 -168 -335 -172 -339 -3 -3 -82 146 -175
331 -92 185 -175 340 -183 345 -9 5 -23 4 -33 -1z"/>
<path d="M2976 3151 c-14 -15 -16 -64 -16 -399 0 -367 1 -382 19 -392 12 -6
110 -10 250 -10 195 0 232 2 245 16 19 19 20 26 4 42 -9 9 -73 12 -225 12
l-213 0 0 351 c0 208 -4 358 -10 368 -14 27 -36 32 -54 12z"/>
<path d="M2387 3154 c-4 -4 -7 -81 -7 -172 l0 -164 -36 32 c-56 48 -115 70
-192 70 -83 0 -136 -23 -194 -83 -140 -143 -83 -405 102 -471 67 -24 177 -18
236 12 58 30 118 101 138 164 14 45 16 95 14 333 l-3 280 -25 3 c-14 2 -29 0
-33 -4z m-164 -305 c79 -22 156 -120 157 -200 0 -93 -59 -190 -135 -219 -42
-16 -124 -15 -165 2 -51 22 -106 83 -120 134 -49 174 96 330 263 283z"/>
<path d="M4637 3154 c-4 -4 -7 -182 -7 -394 0 -341 2 -389 16 -401 11 -9 20
-10 32 -2 14 8 18 29 20 104 l2 94 42 37 41 36 46 -57 c150 -186 184 -222 205
-219 12 2 22 11 24 23 3 21 -2 28 -136 196 l-84 103 59 56 c32 30 82 77 111
104 57 52 64 81 21 81 -20 0 -65 -34 -175 -134 l-149 -133 -5 253 -5 254 -25
3 c-14 2 -29 0 -33 -4z"/>
<path d="M2668 3129 c-22 -12 -24 -62 -4 -78 21 -18 66 -9 82 14 29 44 -30 93
-78 64z"/>
<path d="M3633 3128 c-32 -41 -12 -88 38 -88 22 0 32 7 41 25 17 38 -3 75 -41
75 -16 0 -33 -6 -38 -12z"/>
<path d="M4136 2919 c-30 -5 -68 -20 -93 -38 -24 -17 -45 -31 -48 -31 -2 0 -5
12 -7 26 -4 35 -31 53 -52 35 -14 -12 -16 -49 -16 -276 0 -227 2 -264 16 -276
11 -9 20 -10 32 -2 15 9 18 37 22 201 5 173 7 193 26 219 34 46 96 75 163 75
64 0 91 -10 134 -51 49 -45 52 -57 57 -250 4 -157 7 -185 22 -194 12 -8 21 -7
32 2 23 19 23 336 1 402 -41 119 -151 179 -289 158z"/>
<path d="M1402 2894 c-95 -47 -146 -140 -145 -264 1 -124 72 -228 182 -265 74
-24 171 -18 236 16 62 33 76 53 53 76 -16 16 -21 15 -74 -12 -110 -56 -233
-30 -293 62 -17 26 -31 59 -31 75 l0 28 223 2 222 3 3 49 c6 96 -63 204 -154
242 -57 24 -162 18 -222 -12z m195 -49 c21 -9 46 -23 56 -33 27 -24 57 -86 57
-117 l0 -25 -190 0 c-185 0 -190 1 -190 20 0 34 37 97 75 127 54 43 129 54
192 28z"/>
<path d="M2682 2912 c-9 -7 -12 -69 -10 -277 3 -246 4 -269 21 -279 15 -9 21
-7 33 8 19 26 21 525 2 544 -14 14 -28 15 -46 4z"/>
<path d="M3642 2908 c-9 -9 -12 -79 -12 -275 0 -259 0 -262 22 -274 18 -10 24
-8 37 8 14 16 15 53 11 283 -5 256 -6 265 -25 268 -11 1 -26 -3 -33 -10z"/>
</g>
</svg>
