<?xml version="1.0" standalone="no"?>
<!DOCTYPE svg PUBLIC "-//W3C//DTD SVG 20010904//EN"
 "http://www.w3.org/TR/2001/REC-SVG-20010904/DTD/svg10.dtd">
<svg version="1.0" xmlns="http://www.w3.org/2000/svg"
 width="712.000000pt" height="182.000000pt" viewBox="0 0 712.000000 182.000000"
 preserveAspectRatio="xMidYMid meet">

<g transform="translate(0.000000,182.000000) scale(0.100000,-0.100000)"
fill="#000000" stroke="none">
<path d="M217 1323 c-4 -3 -7 -181 -7 -394 0 -362 1 -389 18 -398 11 -6 24 -6
35 0 15 9 17 36 17 311 0 206 3 299 10 292 6 -6 74 -136 151 -290 77 -153 147
-284 156 -291 8 -6 21 -9 29 -6 7 2 38 55 67 116 200 410 239 488 243 484 3
-3 7 -139 10 -303 5 -258 8 -301 21 -311 12 -9 20 -10 30 -2 11 10 13 85 11
403 l-3 391 -24 0 c-22 0 -41 -33 -193 -339 -95 -190 -173 -335 -178 -330 -4
5 -80 152 -169 328 -88 175 -165 324 -172 332 -12 15 -41 19 -52 7z"/>
<path d="M2332 1318 c-8 -8 -12 -60 -12 -170 0 -87 -4 -158 -8 -158 -5 0 -18
12 -31 26 -57 66 -191 93 -283 58 -132 -51 -205 -212 -163 -357 22 -75 99
-156 171 -181 141 -48 286 10 351 142 l28 57 3 274 c2 151 1 284 -2 297 -7 26
-34 32 -54 12z m-111 -322 c60 -40 90 -94 96 -170 12 -140 -75 -238 -210 -239
-75 0 -131 25 -175 80 -37 48 -44 69 -43 144 0 47 6 71 26 104 30 51 81 94
128 106 55 14 135 3 178 -25z"/>
<path d="M2913 1318 c-9 -15 -7 -777 2 -787 4 -3 115 -6 247 -6 211 0 242 2
251 16 6 9 7 24 4 33 -6 14 -32 16 -222 16 l-215 0 0 351 c0 222 -4 357 -10
370 -12 21 -45 25 -57 7z"/>
<path d="M4582 1318 c-9 -9 -12 -110 -12 -395 0 -358 1 -383 18 -392 32 -17
40 1 45 97 4 86 6 95 33 123 56 59 52 61 169 -84 59 -72 113 -136 121 -140 16
-9 44 8 44 27 0 6 -30 47 -66 91 -100 122 -154 193 -154 202 0 4 24 29 53 55
174 156 173 154 158 172 -7 9 -19 16 -27 16 -7 0 -82 -62 -166 -137 l-153
-137 -7 64 c-4 36 -4 108 -1 161 3 53 2 139 -2 192 -6 82 -10 97 -24 97 -9 0
-22 -5 -29 -12z"/>
<path d="M2607 1292 c-32 -35 -10 -82 38 -82 40 0 59 55 29 84 -21 21 -47 20
-67 -2z"/>
<path d="M3578 1299 c-21 -12 -24 -59 -6 -77 20 -20 56 -14 74 13 15 23 15 27
0 50 -17 26 -40 31 -68 14z"/>
<path d="M1372 1077 c-49 -15 -122 -85 -148 -142 -36 -76 -34 -193 4 -266 31
-60 101 -120 162 -138 87 -26 219 0 269 53 20 22 21 25 6 40 -15 14 -20 14
-66 -9 -148 -76 -296 -15 -334 138 l-7 27 215 0 c118 0 222 3 231 6 28 11 20
92 -15 163 -48 95 -123 142 -226 140 -32 -1 -73 -6 -91 -12z m171 -61 c58 -24
132 -133 112 -166 -10 -16 -395 -14 -395 3 0 29 50 116 79 136 58 41 144 53
204 27z"/>
<path d="M2622 1078 c-9 -9 -12 -84 -12 -275 0 -245 1 -263 18 -272 39 -21 42
1 42 280 0 234 -2 268 -16 273 -20 8 -18 8 -32 -6z"/>
<path d="M3593 1082 c-9 -5 -12 -80 -14 -276 -1 -283 1 -297 43 -275 17 9 18
29 18 272 0 281 -4 306 -47 279z"/>
<path d="M3877 1078 c-15 -8 -17 -35 -17 -268 0 -222 2 -261 16 -274 19 -20
19 -20 38 0 13 13 16 45 16 197 l0 182 31 38 c17 21 43 44 57 51 94 48 217 17
268 -67 16 -28 20 -57 24 -217 l5 -185 30 0 30 0 0 180 c0 202 -9 245 -68 305
-50 51 -109 72 -193 68 -59 -3 -80 -9 -123 -36 -29 -17 -54 -32 -55 -32 -2 0
-6 13 -9 29 -7 32 -25 43 -50 29z"/>
</g>
</svg>
